<svg width="33" height="32" viewBox="0 0 33 32" fill="none" xmlns="http://www.w3.org/2000/svg">
<rect x="0.564453" width="32" height="32" rx="16" fill="#2563EB"/>
<path d="M13.3897 21V19.4489L17.014 16.093C17.3223 15.7947 17.5808 15.5263 17.7896 15.2876C18.0017 15.049 18.1625 14.8153 18.2718 14.5866C18.3812 14.3546 18.4359 14.1044 18.4359 13.8359C18.4359 13.5376 18.368 13.2808 18.2321 13.0653C18.0962 12.8466 17.9106 12.6792 17.6752 12.5632C17.4399 12.4439 17.1731 12.3842 16.8748 12.3842C16.5633 12.3842 16.2915 12.4472 16.0595 12.5732C15.8275 12.6991 15.6485 12.8797 15.5225 13.1151C15.3966 13.3504 15.3336 13.6304 15.3336 13.9553H13.2903C13.2903 13.2891 13.4411 12.7107 13.7427 12.2202C14.0443 11.7296 14.4669 11.3501 15.0105 11.0817C15.554 10.8132 16.1805 10.679 16.8897 10.679C17.6189 10.679 18.2536 10.8082 18.7939 11.0668C19.3374 11.322 19.76 11.6766 20.0616 12.1307C20.3632 12.5848 20.514 13.1051 20.514 13.6918C20.514 14.0762 20.4378 14.4557 20.2853 14.8303C20.1362 15.2048 19.8694 15.6207 19.4849 16.0781C19.1004 16.5322 18.5585 17.0774 17.8592 17.7138L16.3727 19.1705V19.2401H20.6483V21H13.3897Z" fill="white"/>
</svg>
