<svg width="33" height="32" viewBox="0 0 33 32" fill="none" xmlns="http://www.w3.org/2000/svg">
<rect x="0.564453" width="32" height="32" rx="16" fill="#2563EB"/>
<path d="M16.1532 21.1392C15.4108 21.1392 14.7496 21.0116 14.1696 20.7564C13.5929 20.4979 13.1371 20.1432 12.8024 19.6925C12.4709 19.2384 12.3002 18.7147 12.2903 18.1214H14.4579C14.4712 18.37 14.5524 18.5888 14.7015 18.7777C14.854 18.9633 15.0562 19.1075 15.3081 19.2102C15.56 19.313 15.8433 19.3643 16.1582 19.3643C16.4863 19.3643 16.7763 19.3063 17.0282 19.1903C17.2801 19.0743 17.4773 18.9136 17.6199 18.7081C17.7624 18.5026 17.8336 18.2656 17.8336 17.9972C17.8336 17.7254 17.7574 17.4851 17.6049 17.2763C17.4558 17.0642 17.2404 16.8984 16.9586 16.7791C16.6802 16.6598 16.3488 16.6001 15.9643 16.6001H15.0147V15.0192H15.9643C16.2891 15.0192 16.5758 14.9628 16.8244 14.8501C17.0763 14.7375 17.2718 14.5817 17.411 14.3828C17.5502 14.1806 17.6199 13.9453 17.6199 13.6768C17.6199 13.4216 17.5585 13.1979 17.4359 13.0057C17.3166 12.8101 17.1475 12.6577 16.9288 12.5483C16.7134 12.4389 16.4615 12.3842 16.1731 12.3842C15.8815 12.3842 15.6146 12.4373 15.3727 12.5433C15.1307 12.6461 14.9368 12.7936 14.791 12.9858C14.6452 13.178 14.5673 13.4034 14.5574 13.6619H12.4941C12.5041 13.0753 12.6715 12.5582 12.9963 12.1108C13.3211 11.6634 13.7586 11.3137 14.3088 11.0618C14.8623 10.8066 15.487 10.679 16.1831 10.679C16.8857 10.679 17.5005 10.8066 18.0275 11.0618C18.5545 11.317 18.9638 11.6617 19.2555 12.0959C19.5505 12.5268 19.6963 13.0107 19.693 13.5476C19.6963 14.1177 19.519 14.5933 19.161 14.9744C18.8064 15.3556 18.344 15.5975 17.774 15.7003V15.7798C18.523 15.8759 19.0931 16.1361 19.4842 16.5604C19.8786 16.9813 20.0742 17.5083 20.0708 18.1413C20.0742 18.7214 19.9068 19.2367 19.5687 19.6875C19.234 20.1383 18.7716 20.4929 18.1816 20.7514C17.5917 21.0099 16.9155 21.1392 16.1532 21.1392Z" fill="white"/>
</svg>
