<svg width="55" height="54" viewBox="0 0 55 54" fill="none" xmlns="http://www.w3.org/2000/svg">
<rect x="0.581543" width="53.5814" height="53.5814" rx="26.7907" fill="#DCFCE7"/>
<path d="M35.5352 23.0233H19.6282C19.0791 23.0233 18.634 23.4684 18.634 24.0175V26.0058C18.634 26.5549 19.0791 27 19.6282 27H35.5352C36.0843 27 36.5294 26.5549 36.5294 26.0058V24.0175C36.5294 23.4684 36.0843 23.0233 35.5352 23.0233Z" stroke="#16A34A" stroke-width="1.98837" stroke-linecap="round" stroke-linejoin="round"/>
<path d="M27.5815 23.0233V35.9477" stroke="#16A34A" stroke-width="1.98837" stroke-linecap="round" stroke-linejoin="round"/>
<path d="M34.5409 27V33.9593C34.5409 34.4867 34.3314 34.9924 33.9585 35.3653C33.5856 35.7382 33.0799 35.9477 32.5525 35.9477H22.6107C22.0833 35.9477 21.5776 35.7382 21.2047 35.3653C20.8318 34.9924 20.6223 34.4867 20.6223 33.9593V27" stroke="#16A34A" stroke-width="1.98837" stroke-linecap="round" stroke-linejoin="round"/>
<path d="M23.1078 23.0233C22.4486 23.0233 21.8164 22.7614 21.3503 22.2953C20.8842 21.8292 20.6223 21.197 20.6223 20.5378C20.6223 19.8786 20.8842 19.2464 21.3503 18.7803C21.8164 18.3142 22.4486 18.0523 23.1078 18.0523C24.0669 18.0356 25.0067 18.501 25.8047 19.3877C26.6028 20.2744 27.222 21.5413 27.5816 23.0233C27.9412 21.5413 28.5604 20.2744 29.3585 19.3877C30.1565 18.501 31.0964 18.0356 32.0555 18.0523C32.7146 18.0523 33.3468 18.3142 33.8129 18.7803C34.2791 19.2464 34.5409 19.8786 34.5409 20.5378C34.5409 21.197 34.2791 21.8292 33.8129 22.2953C33.3468 22.7614 32.7146 23.0233 32.0555 23.0233" stroke="#16A34A" stroke-width="1.98837" stroke-linecap="round" stroke-linejoin="round"/>
</svg>
