<svg width="20" height="20" viewBox="0 0 20 20" fill="none" xmlns="http://www.w3.org/2000/svg">
<path d="M18 6H2C1.44772 6 1 6.44772 1 7V9C1 9.55228 1.44772 10 2 10H18C18.5523 10 19 9.55228 19 9V7C19 6.44772 18.5523 6 18 6Z" stroke="white" stroke-width="2" stroke-linecap="round" stroke-linejoin="round"/>
<path d="M10 6V19" stroke="white" stroke-width="2" stroke-linecap="round" stroke-linejoin="round"/>
<path d="M17 10V17C17 17.5304 16.7893 18.0391 16.4142 18.4142C16.0391 18.7893 15.5304 19 15 19H5C4.46957 19 3.96086 18.7893 3.58579 18.4142C3.21071 18.0391 3 17.5304 3 17V10" stroke="white" stroke-width="2" stroke-linecap="round" stroke-linejoin="round"/>
<path d="M5.5 5.99999C4.83696 5.99999 4.20107 5.7366 3.73223 5.26776C3.26339 4.79892 3 4.16304 3 3.49999C3 2.83695 3.26339 2.20107 3.73223 1.73223C4.20107 1.26339 4.83696 0.999995 5.5 0.999995C6.46469 0.983187 7.41003 1.45125 8.21274 2.34316C9.01545 3.23506 9.63828 4.5094 10 5.99999C10.3617 4.5094 10.9846 3.23506 11.7873 2.34316C12.59 1.45125 13.5353 0.983187 14.5 0.999995C15.163 0.999995 15.7989 1.26339 16.2678 1.73223C16.7366 2.20107 17 2.83695 17 3.49999C17 4.16304 16.7366 4.79892 16.2678 5.26776C15.7989 5.7366 15.163 5.99999 14.5 5.99999" stroke="white" stroke-width="2" stroke-linecap="round" stroke-linejoin="round"/>
</svg>
