<svg width="40" height="40" viewBox="0 0 40 40" fill="none" xmlns="http://www.w3.org/2000/svg">
<rect width="40" height="40" rx="20" fill="#16A34A"/>
<g clip-path="url(#clip0_2_673)">
<path d="M29.8199 23.42L27.3199 27.75C26.8299 28.61 25.9199 29.06 24.9999 29H22.9999V31L20.4999 26.5L22.9999 22V24H25.8199L23.5999 20.15L27.9299 17.65L29.7299 20.77C30.2499 21.54 30.3199 22.57 29.8199 23.42ZM17.2099 11.06H22.2099C23.1899 11.06 24.0399 11.63 24.4499 12.45L25.4499 14.19L27.1799 13.19L24.5399 17.6L19.3899 17.69L21.1199 16.69L19.7099 14.24L17.4999 18.09L13.1599 15.59L14.9599 12.47C15.3699 11.64 16.2199 11.06 17.2099 11.06ZM13.0499 27.76L10.5499 23.43C10.0599 22.58 10.1299 21.56 10.6399 20.79L11.6399 19.06L9.90991 18.06L15.0499 18.14L17.6999 22.56L15.9699 21.56L14.5599 24H18.9999V29H15.3999C14.9314 29.0339 14.4628 28.9357 14.0474 28.7165C13.6319 28.4973 13.2864 28.1659 13.0499 27.76Z" fill="black"/>
<path d="M29.8199 23.42L27.3199 27.75C26.8299 28.61 25.9199 29.06 24.9999 29H22.9999V31L20.4999 26.5L22.9999 22V24H25.8199L23.5999 20.15L27.9299 17.65L29.7299 20.77C30.2499 21.54 30.3199 22.57 29.8199 23.42ZM17.2099 11.06H22.2099C23.1899 11.06 24.0399 11.63 24.4499 12.45L25.4499 14.19L27.1799 13.19L24.5399 17.6L19.3899 17.69L21.1199 16.69L19.7099 14.24L17.4999 18.09L13.1599 15.59L14.9599 12.47C15.3699 11.64 16.2199 11.06 17.2099 11.06ZM13.0499 27.76L10.5499 23.43C10.0599 22.58 10.1299 21.56 10.6399 20.79L11.6399 19.06L9.90991 18.06L15.0499 18.14L17.6999 22.56L15.9699 21.56L14.5599 24H18.9999V29H15.3999C14.9314 29.0339 14.4628 28.9357 14.0474 28.7165C13.6319 28.4973 13.2864 28.1659 13.0499 27.76Z" fill="#DCFCE7"/>
</g>
<defs>
<clipPath id="clip0_2_673">
<rect width="24" height="24" fill="white" transform="translate(8 8)"/>
</clipPath>
</defs>
</svg>
