<svg width="151" height="28" viewBox="0 0 151 28" fill="none" xmlns="http://www.w3.org/2000/svg">
<path d="M7.43556 21H5.25056C4.93513 21.0009 4.62481 20.9203 4.34973 20.7659C4.07465 20.6116 3.84413 20.3887 3.68056 20.119C3.52347 19.8481 3.4404 19.5407 3.4397 19.2275C3.439 18.9144 3.52069 18.6066 3.67656 18.335L7.63156 11.5" stroke="#4ADE80" stroke-width="2" stroke-linecap="round" stroke-linejoin="round"/>
<path d="M11.4355 21.0001H19.6385C19.9525 20.9977 20.2605 20.9145 20.533 20.7586C20.8055 20.6028 21.0333 20.3794 21.1945 20.1101C21.3495 19.84 21.431 19.534 21.431 19.2226C21.431 18.9112 21.3495 18.6052 21.1945 18.3351L19.9685 16.2151" stroke="#4ADE80" stroke-width="2" stroke-linecap="round" stroke-linejoin="round"/>
<path d="M14.4355 18L11.4355 21L14.4355 24" stroke="#4ADE80" stroke-width="2" stroke-linecap="round" stroke-linejoin="round"/>
<path d="M8.72864 15.596L7.63164 11.5L3.53564 12.598" stroke="#4ADE80" stroke-width="2" stroke-linecap="round" stroke-linejoin="round"/>
<path d="M9.77954 7.811L10.8725 5.919C11.0295 5.6454 11.2545 5.41701 11.5257 5.25599C11.7969 5.09497 12.1052 5.00679 12.4205 5C12.7335 4.99942 13.0411 5.08116 13.3124 5.23703C13.5838 5.39289 13.8094 5.6174 13.9665 5.888L17.9095 12.731" stroke="#4ADE80" stroke-width="2" stroke-linecap="round" stroke-linejoin="round"/>
<path d="M13.8135 11.633L17.9095 12.731L19.0065 8.63501" stroke="#4ADE80" stroke-width="2" stroke-linecap="round" stroke-linejoin="round"/>
<path d="M33.6998 21V6.45455H39.4384C40.5369 6.45455 41.4744 6.65104 42.2509 7.04403C43.0321 7.43229 43.6264 7.9839 44.0336 8.69886C44.4455 9.40909 44.6515 10.2448 44.6515 11.206C44.6515 12.1719 44.4431 13.0028 44.0265 13.6989C43.6098 14.3902 43.0061 14.9205 42.2154 15.2898C41.4294 15.6591 40.4777 15.8438 39.3603 15.8438H35.5179V13.3722H38.8631C39.4502 13.3722 39.9379 13.2917 40.3262 13.1307C40.7144 12.9697 41.0033 12.7282 41.1926 12.4062C41.3868 12.0843 41.4838 11.6842 41.4838 11.206C41.4838 10.723 41.3868 10.3158 41.1926 9.98438C41.0033 9.65294 40.7121 9.40199 40.3191 9.23153C39.9308 9.05634 39.4408 8.96875 38.8489 8.96875H36.775V21H33.6998ZM41.5549 14.3807L45.1699 21H41.775L38.2381 14.3807H41.5549ZM51.5637 21.2131C50.4416 21.2131 49.4757 20.9858 48.666 20.5312C47.8611 20.072 47.2408 19.4233 46.8052 18.5852C46.3696 17.7424 46.1518 16.7457 46.1518 15.5952C46.1518 14.473 46.3696 13.4882 46.8052 12.6406C47.2408 11.7931 47.854 11.1326 48.6447 10.6591C49.4402 10.1856 50.3729 9.94886 51.443 9.94886C52.1627 9.94886 52.8327 10.0649 53.4529 10.2969C54.0779 10.5241 54.6225 10.8674 55.0865 11.3267C55.5552 11.786 55.9198 12.3636 56.1802 13.0597C56.4406 13.7509 56.5708 14.5606 56.5708 15.4886V16.3196H47.3592V14.4446H53.7228C53.7228 14.009 53.6281 13.6231 53.4387 13.2869C53.2493 12.9508 52.9866 12.688 52.6504 12.4986C52.319 12.3045 51.9331 12.2074 51.4927 12.2074C51.0334 12.2074 50.6262 12.3139 50.2711 12.527C49.9208 12.7353 49.6461 13.017 49.4473 13.3722C49.2484 13.7225 49.1466 14.1132 49.1419 14.544V16.3267C49.1419 16.8665 49.2413 17.3329 49.4402 17.7259C49.6438 18.1188 49.9302 18.4219 50.2995 18.6349C50.6689 18.848 51.1068 18.9545 51.6135 18.9545C51.9496 18.9545 52.2574 18.9072 52.5368 18.8125C52.8161 18.7178 53.0552 18.5758 53.2541 18.3864C53.4529 18.197 53.6045 17.965 53.7086 17.6903L56.5069 17.875C56.3649 18.5473 56.0737 19.1345 55.6333 19.6364C55.1977 20.1335 54.6343 20.5218 53.943 20.8011C53.2565 21.0758 52.4634 21.2131 51.5637 21.2131ZM63.4743 21.2131C62.3568 21.2131 61.3957 20.9763 60.5907 20.5028C59.7905 20.0246 59.175 19.3617 58.7441 18.5142C58.318 17.6667 58.1049 16.6913 58.1049 15.5881C58.1049 14.4706 58.3204 13.4905 58.7512 12.6477C59.1868 11.8002 59.8047 11.1397 60.6049 10.6662C61.4051 10.188 62.3568 9.94886 63.46 9.94886C64.4118 9.94886 65.2451 10.1217 65.96 10.4673C66.675 10.813 67.2408 11.2983 67.6575 11.9233C68.0742 12.5483 68.3038 13.2822 68.3464 14.125H65.4913C65.4108 13.5805 65.1977 13.1425 64.8521 12.8111C64.5112 12.4749 64.0637 12.3068 63.5098 12.3068C63.041 12.3068 62.6315 12.4347 62.2811 12.6903C61.9354 12.9413 61.6655 13.3082 61.4714 13.7912C61.2773 14.2741 61.1802 14.8589 61.1802 15.5455C61.1802 16.2415 61.2749 16.8333 61.4643 17.321C61.6584 17.8087 61.9307 18.1804 62.2811 18.4361C62.6315 18.6918 63.041 18.8196 63.5098 18.8196C63.8554 18.8196 64.1655 18.7486 64.4402 18.6065C64.7195 18.4645 64.9492 18.2585 65.1291 17.9886C65.3137 17.714 65.4345 17.3849 65.4913 17.0014H68.3464C68.2991 17.8348 68.0718 18.5687 67.6646 19.2031C67.2621 19.8329 66.7058 20.3253 65.9956 20.6804C65.2853 21.0355 64.4449 21.2131 63.4743 21.2131ZM70.2836 21V10.0909H73.3091V21H70.2836ZM71.8034 8.68466C71.3536 8.68466 70.9677 8.53551 70.6458 8.23722C70.3285 7.93419 70.1699 7.57197 70.1699 7.15057C70.1699 6.7339 70.3285 6.37642 70.6458 6.07812C70.9677 5.77509 71.3536 5.62358 71.8034 5.62358C72.2533 5.62358 72.6368 5.77509 72.954 6.07812C73.276 6.37642 73.437 6.7339 73.437 7.15057C73.437 7.57197 73.276 7.93419 72.954 8.23722C72.6368 8.53551 72.2533 8.68466 71.8034 8.68466ZM80.6618 21.2131C79.5443 21.2131 78.5832 20.9763 77.7782 20.5028C76.978 20.0246 76.3625 19.3617 75.9316 18.5142C75.5055 17.6667 75.2924 16.6913 75.2924 15.5881C75.2924 14.4706 75.5079 13.4905 75.9387 12.6477C76.3743 11.8002 76.9922 11.1397 77.7924 10.6662C78.5926 10.188 79.5443 9.94886 80.6475 9.94886C81.5993 9.94886 82.4326 10.1217 83.1475 10.4673C83.8625 10.813 84.4283 11.2983 84.845 11.9233C85.2617 12.5483 85.4913 13.2822 85.5339 14.125H82.6788C82.5983 13.5805 82.3852 13.1425 82.0396 12.8111C81.6987 12.4749 81.2512 12.3068 80.6973 12.3068C80.2285 12.3068 79.819 12.4347 79.4686 12.6903C79.1229 12.9413 78.853 13.3082 78.6589 13.7912C78.4648 14.2741 78.3677 14.8589 78.3677 15.5455C78.3677 16.2415 78.4624 16.8333 78.6518 17.321C78.8459 17.8087 79.1182 18.1804 79.4686 18.4361C79.819 18.6918 80.2285 18.8196 80.6973 18.8196C81.0429 18.8196 81.353 18.7486 81.6277 18.6065C81.907 18.4645 82.1367 18.2585 82.3166 17.9886C82.5012 17.714 82.622 17.3849 82.6788 17.0014H85.5339C85.4866 17.8348 85.2593 18.5687 84.8521 19.2031C84.4496 19.8329 83.8933 20.3253 83.1831 20.6804C82.4728 21.0355 81.6324 21.2131 80.6618 21.2131ZM90.4966 6.45455V21H87.4711V6.45455H90.4966ZM96.0311 21.206C95.335 21.206 94.7148 21.0852 94.1703 20.8438C93.6258 20.5975 93.1949 20.2353 92.8777 19.7571C92.5652 19.2741 92.4089 18.6728 92.4089 17.9531C92.4089 17.3471 92.5202 16.8381 92.7427 16.4261C92.9653 16.0142 93.2683 15.6828 93.6518 15.4318C94.0353 15.1809 94.4709 14.9915 94.9586 14.8636C95.4511 14.7358 95.9672 14.6458 96.5069 14.5938C97.1414 14.5275 97.6528 14.4659 98.041 14.4091C98.4293 14.3475 98.711 14.2576 98.8862 14.1392C99.0614 14.0208 99.149 13.8456 99.149 13.6136V13.571C99.149 13.1212 99.0069 12.7732 98.7228 12.527C98.4435 12.2808 98.0458 12.1577 97.5297 12.1577C96.9851 12.1577 96.5519 12.2784 96.2299 12.5199C95.908 12.7566 95.6949 13.0549 95.5907 13.4148L92.7924 13.1875C92.9345 12.5246 93.2138 11.9517 93.6305 11.4688C94.0472 10.9811 94.5846 10.607 95.2427 10.3466C95.9056 10.0814 96.6726 9.94886 97.5439 9.94886C98.1499 9.94886 98.7299 10.0199 99.2839 10.1619C99.8426 10.304 100.337 10.5241 100.768 10.8224C101.204 11.1207 101.547 11.5043 101.798 11.973C102.049 12.437 102.175 12.9934 102.175 13.642V21H99.3052V19.4872H99.22C99.0448 19.8281 98.8104 20.1288 98.5169 20.3892C98.2233 20.6449 97.8706 20.8461 97.4586 20.9929C97.0467 21.1349 96.5708 21.206 96.0311 21.206ZM96.8975 19.1179C97.3426 19.1179 97.7356 19.0303 98.0765 18.8551C98.4174 18.6752 98.685 18.4337 98.8791 18.1307C99.0732 17.8277 99.1703 17.4844 99.1703 17.1009V15.9432C99.0756 16.0047 98.9454 16.0616 98.7797 16.1136C98.6187 16.161 98.4364 16.206 98.2328 16.2486C98.0292 16.2865 97.8256 16.322 97.622 16.3551C97.4184 16.3835 97.2337 16.4096 97.068 16.4332C96.7129 16.4853 96.4028 16.5682 96.1376 16.6818C95.8725 16.7955 95.6665 16.9493 95.5197 17.1435C95.3729 17.3329 95.2995 17.5696 95.2995 17.8537C95.2995 18.2656 95.4487 18.5805 95.747 18.7983C96.05 19.0114 96.4335 19.1179 96.8975 19.1179ZM103.107 8.99006V6.45455H115.053V8.99006H110.6V21H107.56V8.99006H103.107ZM120.353 21.2131C119.231 21.2131 118.265 20.9858 117.455 20.5312C116.65 20.072 116.03 19.4233 115.594 18.5852C115.159 17.7424 114.941 16.7457 114.941 15.5952C114.941 14.473 115.159 13.4882 115.594 12.6406C116.03 11.7931 116.643 11.1326 117.434 10.6591C118.229 10.1856 119.162 9.94886 120.232 9.94886C120.952 9.94886 121.622 10.0649 122.242 10.2969C122.867 10.5241 123.412 10.8674 123.876 11.3267C124.344 11.786 124.709 12.3636 124.969 13.0597C125.23 13.7509 125.36 14.5606 125.36 15.4886V16.3196H116.148V14.4446H122.512C122.512 14.009 122.417 13.6231 122.228 13.2869C122.038 12.9508 121.776 12.688 121.439 12.4986C121.108 12.3045 120.722 12.2074 120.282 12.2074C119.823 12.2074 119.415 12.3139 119.06 12.527C118.71 12.7353 118.435 13.017 118.236 13.3722C118.037 13.7225 117.936 14.1132 117.931 14.544V16.3267C117.931 16.8665 118.03 17.3329 118.229 17.7259C118.433 18.1188 118.719 18.4219 119.089 18.6349C119.458 18.848 119.896 18.9545 120.403 18.9545C120.739 18.9545 121.046 18.9072 121.326 18.8125C121.605 18.7178 121.844 18.5758 122.043 18.3864C122.242 18.197 122.394 17.965 122.498 17.6903L125.296 17.875C125.154 18.5473 124.863 19.1345 124.422 19.6364C123.987 20.1335 123.423 20.5218 122.732 20.8011C122.046 21.0758 121.252 21.2131 120.353 21.2131ZM132.263 21.2131C131.146 21.2131 130.185 20.9763 129.38 20.5028C128.58 20.0246 127.964 19.3617 127.533 18.5142C127.107 17.6667 126.894 16.6913 126.894 15.5881C126.894 14.4706 127.109 13.4905 127.54 12.6477C127.976 11.8002 128.594 11.1397 129.394 10.6662C130.194 10.188 131.146 9.94886 132.249 9.94886C133.201 9.94886 134.034 10.1217 134.749 10.4673C135.464 10.813 136.03 11.2983 136.447 11.9233C136.863 12.5483 137.093 13.2822 137.135 14.125H134.28C134.2 13.5805 133.987 13.1425 133.641 12.8111C133.3 12.4749 132.853 12.3068 132.299 12.3068C131.83 12.3068 131.421 12.4347 131.07 12.6903C130.724 12.9413 130.455 13.3082 130.26 13.7912C130.066 14.2741 129.969 14.8589 129.969 15.5455C129.969 16.2415 130.064 16.8333 130.253 17.321C130.448 17.8087 130.72 18.1804 131.07 18.4361C131.421 18.6918 131.83 18.8196 132.299 18.8196C132.644 18.8196 132.955 18.7486 133.229 18.6065C133.509 18.4645 133.738 18.2585 133.918 17.9886C134.103 17.714 134.224 17.3849 134.28 17.0014H137.135C137.088 17.8348 136.861 18.5687 136.454 19.2031C136.051 19.8329 135.495 20.3253 134.785 20.6804C134.074 21.0355 133.234 21.2131 132.263 21.2131ZM142.098 14.6932V21H139.073V6.45455H142.013V12.0156H142.141C142.387 11.3717 142.785 10.8674 143.334 10.5028C143.883 10.1335 144.572 9.94886 145.401 9.94886C146.158 9.94886 146.819 10.1146 147.382 10.446C147.95 10.7727 148.391 11.2438 148.703 11.8594C149.021 12.4702 149.177 13.2017 149.172 14.054V21H146.146V14.5938C146.151 13.9214 145.981 13.3982 145.635 13.0241C145.294 12.6501 144.816 12.4631 144.2 12.4631C143.789 12.4631 143.424 12.5507 143.107 12.7259C142.794 12.901 142.548 13.1567 142.368 13.4929C142.193 13.8243 142.103 14.2244 142.098 14.6932Z" fill="white"/>
</svg>
