<svg width="284" height="48" viewBox="0 0 284 48" fill="none" xmlns="http://www.w3.org/2000/svg">
<path d="M10.5 34.5H7.22249C6.74934 34.5014 6.28387 34.3804 5.87124 34.1489C5.45862 33.9173 5.11285 33.5831 4.86749 33.1785C4.63185 32.7722 4.50725 32.311 4.5062 31.8413C4.50515 31.3716 4.62768 30.9099 4.86149 30.5025L10.794 20.25" stroke="#16A34A" stroke-width="3" stroke-linecap="round" stroke-linejoin="round"/>
<path d="M16.5 34.5H28.8045C29.2754 34.4964 29.7374 34.3716 30.1461 34.1379C30.5549 33.9041 30.8966 33.569 31.1385 33.165C31.3709 32.7598 31.4931 32.3009 31.4931 31.8338C31.4931 31.3667 31.3709 30.9077 31.1385 30.5025L29.2995 27.3225" stroke="#16A34A" stroke-width="3" stroke-linecap="round" stroke-linejoin="round"/>
<path d="M21 30L16.5 34.5L21 39" stroke="#16A34A" stroke-width="3" stroke-linecap="round" stroke-linejoin="round"/>
<path d="M12.4395 26.394L10.794 20.25L4.64999 21.897" stroke="#16A34A" stroke-width="3" stroke-linecap="round" stroke-linejoin="round"/>
<path d="M14.016 14.7165L15.6555 11.8785C15.8909 11.4681 16.2284 11.1255 16.6353 10.884C17.0421 10.6425 17.5045 10.5102 17.9775 10.5C18.4469 10.4991 18.9083 10.6217 19.3153 10.8555C19.7224 11.0893 20.0607 11.4261 20.2965 11.832L26.211 22.0965" stroke="#16A34A" stroke-width="3" stroke-linecap="round" stroke-linejoin="round"/>
<path d="M20.067 20.4495L26.211 22.0965L27.8565 15.9525" stroke="#16A34A" stroke-width="3" stroke-linecap="round" stroke-linejoin="round"/>
<path d="M73.62 37L68.364 27.46H66.888V37H60.732V11.728H71.064C73.056 11.728 74.748 12.076 76.14 12.772C77.556 13.468 78.612 14.428 79.308 15.652C80.004 16.852 80.352 18.196 80.352 19.684C80.352 21.364 79.872 22.864 78.912 24.184C77.976 25.504 76.584 26.44 74.736 26.992L80.568 37H73.62ZM66.888 23.104H70.704C71.832 23.104 72.672 22.828 73.224 22.276C73.8 21.724 74.088 20.944 74.088 19.936C74.088 18.976 73.8 18.22 73.224 17.668C72.672 17.116 71.832 16.84 70.704 16.84H66.888V23.104ZM103.152 26.632C103.152 27.208 103.116 27.808 103.044 28.432H89.1124C89.2084 29.68 89.6044 30.64 90.3004 31.312C91.0204 31.96 91.8964 32.284 92.9284 32.284C94.4644 32.284 95.5324 31.636 96.1324 30.34H102.684C102.348 31.66 101.736 32.848 100.848 33.904C99.9844 34.96 98.8924 35.788 97.5724 36.388C96.2524 36.988 94.7764 37.288 93.1444 37.288C91.1764 37.288 89.4244 36.868 87.8884 36.028C86.3524 35.188 85.1524 33.988 84.2884 32.428C83.4244 30.868 82.9924 29.044 82.9924 26.956C82.9924 24.868 83.4124 23.044 84.2524 21.484C85.1164 19.924 86.3164 18.724 87.8524 17.884C89.3884 17.044 91.1524 16.624 93.1444 16.624C95.0884 16.624 96.8164 17.032 98.3284 17.848C99.8404 18.664 101.016 19.828 101.856 21.34C102.72 22.852 103.152 24.616 103.152 26.632ZM96.8524 25.012C96.8524 23.956 96.4924 23.116 95.7724 22.492C95.0524 21.868 94.1524 21.556 93.0724 21.556C92.0404 21.556 91.1644 21.856 90.4444 22.456C89.7484 23.056 89.3164 23.908 89.1484 25.012H96.8524ZM105.176 26.956C105.176 24.868 105.596 23.044 106.436 21.484C107.3 19.924 108.488 18.724 110 17.884C111.536 17.044 113.288 16.624 115.256 16.624C117.776 16.624 119.876 17.284 121.556 18.604C123.26 19.924 124.376 21.784 124.904 24.184H118.352C117.8 22.648 116.732 21.88 115.148 21.88C114.02 21.88 113.12 22.324 112.448 23.212C111.776 24.076 111.44 25.324 111.44 26.956C111.44 28.588 111.776 29.848 112.448 30.736C113.12 31.6 114.02 32.032 115.148 32.032C116.732 32.032 117.8 31.264 118.352 29.728H124.904C124.376 32.08 123.26 33.928 121.556 35.272C119.852 36.616 117.752 37.288 115.256 37.288C113.288 37.288 111.536 36.868 110 36.028C108.488 35.188 107.3 33.988 106.436 32.428C105.596 30.868 105.176 29.044 105.176 26.956ZM131.293 14.824C130.213 14.824 129.325 14.512 128.629 13.888C127.957 13.24 127.621 12.448 127.621 11.512C127.621 10.552 127.957 9.76 128.629 9.136C129.325 8.488 130.213 8.164 131.293 8.164C132.349 8.164 133.213 8.488 133.885 9.136C134.581 9.76 134.929 10.552 134.929 11.512C134.929 12.448 134.581 13.24 133.885 13.888C133.213 14.512 132.349 14.824 131.293 14.824ZM134.353 16.912V37H128.197V16.912H134.353ZM137.59 26.956C137.59 24.868 138.01 23.044 138.85 21.484C139.714 19.924 140.902 18.724 142.414 17.884C143.95 17.044 145.702 16.624 147.67 16.624C150.19 16.624 152.29 17.284 153.97 18.604C155.674 19.924 156.79 21.784 157.318 24.184H150.766C150.214 22.648 149.146 21.88 147.562 21.88C146.434 21.88 145.534 22.324 144.862 23.212C144.19 24.076 143.854 25.324 143.854 26.956C143.854 28.588 144.19 29.848 144.862 30.736C145.534 31.6 146.434 32.032 147.562 32.032C149.146 32.032 150.214 31.264 150.766 29.728H157.318C156.79 32.08 155.674 33.928 153.97 35.272C152.266 36.616 150.166 37.288 147.67 37.288C145.702 37.288 143.95 36.868 142.414 36.028C140.902 35.188 139.714 33.988 138.85 32.428C138.01 30.868 137.59 29.044 137.59 26.956ZM166.767 10.36V37H160.611V10.36H166.767ZM170.004 26.92C170.004 24.856 170.388 23.044 171.156 21.484C171.948 19.924 173.016 18.724 174.36 17.884C175.704 17.044 177.204 16.624 178.86 16.624C180.276 16.624 181.512 16.912 182.568 17.488C183.648 18.064 184.476 18.82 185.052 19.756V16.912H191.208V37H185.052V34.156C184.452 35.092 183.612 35.848 182.532 36.424C181.476 37 180.24 37.288 178.824 37.288C177.192 37.288 175.704 36.868 174.36 36.028C173.016 35.164 171.948 33.952 171.156 32.392C170.388 30.808 170.004 28.984 170.004 26.92ZM185.052 26.956C185.052 25.42 184.62 24.208 183.756 23.32C182.916 22.432 181.884 21.988 180.66 21.988C179.436 21.988 178.392 22.432 177.528 23.32C176.688 24.184 176.268 25.384 176.268 26.92C176.268 28.456 176.688 29.68 177.528 30.592C178.392 31.48 179.436 31.924 180.66 31.924C181.884 31.924 182.916 31.48 183.756 30.592C184.62 29.704 185.052 28.492 185.052 26.956ZM213.842 11.728V16.66H207.146V37H200.99V16.66H194.294V11.728H213.842ZM235.867 26.632C235.867 27.208 235.831 27.808 235.759 28.432H221.827C221.923 29.68 222.319 30.64 223.015 31.312C223.735 31.96 224.611 32.284 225.643 32.284C227.179 32.284 228.247 31.636 228.847 30.34H235.399C235.063 31.66 234.451 32.848 233.563 33.904C232.699 34.96 231.607 35.788 230.287 36.388C228.967 36.988 227.491 37.288 225.859 37.288C223.891 37.288 222.139 36.868 220.603 36.028C219.067 35.188 217.867 33.988 217.003 32.428C216.139 30.868 215.707 29.044 215.707 26.956C215.707 24.868 216.127 23.044 216.967 21.484C217.831 19.924 219.031 18.724 220.567 17.884C222.103 17.044 223.867 16.624 225.859 16.624C227.803 16.624 229.531 17.032 231.043 17.848C232.555 18.664 233.731 19.828 234.571 21.34C235.435 22.852 235.867 24.616 235.867 26.632ZM229.567 25.012C229.567 23.956 229.207 23.116 228.487 22.492C227.767 21.868 226.867 21.556 225.787 21.556C224.755 21.556 223.879 21.856 223.159 22.456C222.463 23.056 222.031 23.908 221.863 25.012H229.567ZM237.891 26.956C237.891 24.868 238.311 23.044 239.151 21.484C240.015 19.924 241.203 18.724 242.715 17.884C244.251 17.044 246.003 16.624 247.971 16.624C250.491 16.624 252.591 17.284 254.271 18.604C255.975 19.924 257.091 21.784 257.619 24.184H251.067C250.515 22.648 249.447 21.88 247.863 21.88C246.735 21.88 245.835 22.324 245.163 23.212C244.491 24.076 244.155 25.324 244.155 26.956C244.155 28.588 244.491 29.848 245.163 30.736C245.835 31.6 246.735 32.032 247.863 32.032C249.447 32.032 250.515 31.264 251.067 29.728H257.619C257.091 32.08 255.975 33.928 254.271 35.272C252.567 36.616 250.467 37.288 247.971 37.288C246.003 37.288 244.251 36.868 242.715 36.028C241.203 35.188 240.015 33.988 239.151 32.428C238.311 30.868 237.891 29.044 237.891 26.956ZM273.26 16.696C275.564 16.696 277.412 17.464 278.804 19C280.196 20.512 280.892 22.6 280.892 25.264V37H274.772V26.092C274.772 24.748 274.424 23.704 273.728 22.96C273.032 22.216 272.096 21.844 270.92 21.844C269.744 21.844 268.808 22.216 268.112 22.96C267.416 23.704 267.068 24.748 267.068 26.092V37H260.912V10.36H267.068V19.612C267.692 18.724 268.544 18.016 269.624 17.488C270.704 16.96 271.916 16.696 273.26 16.696Z" fill="#1F2937"/>
</svg>
